<svg width="26" height="26" viewBox="0 0 26 26" fill="none" xmlns="http://www.w3.org/2000/svg">
<path d="M13.0003 23.8333C11.5017 23.8333 10.0934 23.549 8.77533 22.9802C7.45727 22.4115 6.31074 21.6396 5.33574 20.6646C4.36074 19.6896 3.58887 18.5431 3.02012 17.225C2.45137 15.9069 2.16699 14.4986 2.16699 13C2.16699 11.5014 2.45137 10.0931 3.02012 8.775C3.58887 7.45695 4.36074 6.31042 5.33574 5.33542C6.31074 4.36042 7.45727 3.58855 8.77533 3.0198C10.0934 2.45105 11.5017 2.16667 13.0003 2.16667C14.4989 2.16667 15.9073 2.45105 17.2253 3.0198C18.5434 3.58855 19.6899 4.36042 20.6649 5.33542C21.6399 6.31042 22.4118 7.45695 22.9805 8.775C23.5493 10.0931 23.8337 11.5014 23.8337 13C23.8337 14.4986 23.5493 15.9069 22.9805 17.225C22.4118 18.5431 21.6399 19.6896 20.6649 20.6646C19.6899 21.6396 18.5434 22.4115 17.2253 22.9802C15.9073 23.549 14.4989 23.8333 13.0003 23.8333ZM13.0003 22.2083C15.5642 22.2083 17.7399 21.3146 19.5274 19.5271C21.3149 17.7396 22.2087 15.5639 22.2087 13C22.2087 11.8986 22.0191 10.8424 21.6399 9.83125C21.2607 8.82014 20.7281 7.89931 20.042 7.06875L7.06908 20.0417C7.88158 20.7458 8.79789 21.283 9.81803 21.6531C10.8382 22.0233 11.8989 22.2083 13.0003 22.2083ZM5.98574 18.9313L18.9316 5.98542C18.101 5.28126 17.1802 4.73959 16.1691 4.36042C15.158 3.98126 14.1017 3.79167 13.0003 3.79167C10.4364 3.79167 8.26074 4.68542 6.47324 6.47292C4.68574 8.26042 3.79199 10.4361 3.79199 13C3.79199 14.1014 3.9906 15.1622 4.38783 16.1823C4.78505 17.2024 5.31769 18.1188 5.98574 18.9313Z" fill="#F7941D"/>
</svg>
